<svg xmlns="http://www.w3.org/2000/svg" viewBox="0 0 296.26 105.76"><defs><style>.a{fill:#010101;}.b{fill:#040404;}.c{fill:#020202;}.d{fill:#222;}.e{fill:#0c0c0c;}</style></defs><title>logo</title><path d="M112.08,154.42c-4.43-.59-9,.24-13.45-.45a3.27,3.27,0,0,1-.15-2.86c1.65-.74,3.31-2.07,5-2.16,7.83-.43,15.65-1.18,23.5-.81a9.07,9.07,0,0,1,3.91,1.1,9.28,9.28,0,0,1,.18,3.89c-.3,1.2-1.65.85-2.16,2.25,0,6.62,0,13.72,0,20.83a58.56,58.56,0,0,1-.56,8.57c-.94,6.47-4.51,10.65-10.71,12.6a31.5,31.5,0,0,1-18.07.27c-8.19-2.25-12.22-8.3-11.65-17.35,2.39-.6,4.88-.22,7.33-.29s4.7,0,6.84,0c.85,1.19.48,2.24.74,3.18.7,2.51,2.18,3.59,5,3.57s4.15-1.2,4.73-3.8c.43-1.87,0-3.73,0-5.59q0-9.56,0-19.09C112.56,157.05,112.88,155.78,112.08,154.42Z" transform="translate(-50.97 -93.08)"/><path d="M182.3,159.92h13.94c.63,1.92.3,3.91.32,5.85.05,5.25,0,10.5,0,15.74,0,4.45,1.63,6.58,4.88,6.63,3.48.05,5.89-2.53,6-6.72.11-6.12,0-12.25.06-18.37,0-1,.12-1.94.2-3.1h13.84v37.78a112.3,112.3,0,0,1-11.29.15L209.05,193c-1.31.19-1.83,1.33-2.69,2A17.56,17.56,0,0,1,193,198.61c-6.63-.87-10.46-5.3-10.64-12.79C182.14,177.33,182.3,168.84,182.3,159.92Z" transform="translate(-50.97 -93.08)"/><path d="M273.79,197.81H259.68V160.07c3.74-.51,7.42-.19,11-.17,1.31,1.4.49,3.33,1.76,4.82.9-.18,1.4-1.08,2.11-1.64a17.24,17.24,0,0,1,14.73-3.74c5.19,1,8.22,4.33,9.22,9.57.68,3.59.46,7.21.48,10.83,0,6,0,11.92,0,18.07H285.28c-1-.94-.6-2.13-.61-3.19-.05-5.5,0-11,0-16.49,0-6.29-1.24-8.46-4.84-8.52-4-.06-6,2.76-6,8.56,0,5.25,0,10.49,0,15.74Z" transform="translate(-50.97 -93.08)"/><path d="M155.87,159a23.42,23.42,0,0,1,7.41,1c11.36,3.1,15.1,12.2,13.38,23.39-1.25,8.12-6.35,13-14.44,14.72a30.84,30.84,0,0,1-13,0c-8.63-1.81-13.67-7-14.8-15.64a24.71,24.71,0,0,1,.76-10.78c2.6-8.24,9-11.53,17-12.52C153.37,159,154.62,159,155.87,159Zm-7.29,19.91h0a30.92,30.92,0,0,0,0,3.73c.54,4.24,2.87,6.35,6.89,6.39s6.72-2.19,7.12-6.54a40.09,40.09,0,0,0,0-7.1c-.4-4.38-2.94-6.63-7.09-6.59s-6.52,2.32-7,6.74C148.49,176.61,148.58,177.75,148.58,178.87Z" transform="translate(-50.97 -93.08)"/><path d="M304.37,178.57c.09-10.94,5.3-17.14,16.11-19.14a29.15,29.15,0,0,1,13.36.63c9.44,2.67,14.49,11,13.19,21.55-1.17,9.43-6.15,14.71-15.6,16.6a29.81,29.81,0,0,1-13.74-.45C308.78,195.36,304.29,188.82,304.37,178.57Zm28.5,1.05a24.49,24.49,0,0,0-.43-5.64c-.94-3.64-3.24-5.36-7.1-5.22-3.71.13-6.13,2.19-6.51,5.91a50.32,50.32,0,0,0-.08,7.47c.21,4.31,2.44,6.63,6.36,6.85,4.26.23,6.81-1.79,7.52-6.08A26.59,26.59,0,0,0,332.87,179.62Z" transform="translate(-50.97 -93.08)"/><path class="a" d="M198.48,132.28a31.51,31.51,0,0,1,0,6.79c-5.9,1.8-11.34,2.13-16.23-2.71-4,2.59-8.33,4.29-13.25,3.87a24.36,24.36,0,0,1-3.32-.48c-4.55-1.05-6.9-3.41-7.38-7.31-.64-5.25,1-9,5-11.15,3.83-2.1,8.1-2.31,12.32-2.67,1.84-.16,3.71,0,5.64,0,.57-2.63-.25-4.21-2.37-5.09-2.58-1.06-5.53-.1-8,2.54-3.77,0-7.62.25-11.43-.16-.39-4,1.17-6.71,5.12-8.59,5.37-2.55,11.08-2.63,16.85-2a26.6,26.6,0,0,1,2.94.52c7.28,1.64,9.79,4.81,9.86,12.25,0,4.21-.22,8.43.14,12.1C195.63,132,197.42,131.12,198.48,132.28Zm-17.27-7.65A14.94,14.94,0,0,0,173,126a3.25,3.25,0,0,0-2,3.64c.29,1.81,1.61,2.33,3.21,2.53C179.08,132.79,181.73,130.05,181.21,124.63Z" transform="translate(-50.97 -93.08)"/><path class="a" d="M255,127.8c2-7.3,3.94-14.59,5.93-21.93h11.76c.7,1.3-.14,2.27-.5,3.25q-5.22,14.41-10.56,28.79a46.07,46.07,0,0,1-2.77,6.12c-4.08,7.43-10.16,10.25-18.47,8.68-1-.18-1.93-.47-3-.75-.72-2.43-.39-4.87-.24-7.31,1.79-.85,3.56-.35,5.27-.49,4.25-.34,6-2.92,4.44-6.87-3.81-9.74-7.69-19.47-11.55-29.21A3,3,0,0,1,235,106c4.18-.57,8.47-.11,13.07-.25l6.43,22Z" transform="translate(-50.97 -93.08)"/><path class="a" d="M59.59,120.8c.46,1.94.07,3.74,1,5.23-1.11,1.12-2.82,1-3.36,2.51,3.42,4.23,18.64,4.35,22.59.18-.38-1.6-2.11-1.53-3.19-2.56a17.34,17.34,0,0,0,.56-5.37c5.38.75,8.34,3.22,8.78,7,.48,4.2-2,6.7-9.46,9.59,0,1.7.69,3.23,1.63,5.19,1.1-1.25,2.06-2.27,2.93-3.36,2.54-3.18,5.65-3.75,9.34-2.28a83.33,83.33,0,0,1,8.46,4.11c1.39-.25,2.71-1.35,4.68-.32,3,2.56,2.94,4.74-1,6.62q-12.63,6-25.39,11.82c-4.12,1.87-6.83.86-8.93-3.22-2.3-4.45-3.24-9.39-4.88-14.08-.49-1.41-.92-2.83-1.43-4.39l-3.57-1c-4.63-1.28-7.53-4.52-7.37-8.21C51.14,124.45,54.12,121.77,59.59,120.8Zm24.07,26.63c2.87.79,4.54-1.4,7-2.39a6.13,6.13,0,0,0-3.55-1.65c-1.6,1.12-2.28,2.81-3.43,4.09a3.52,3.52,0,0,0,.15.42Z" transform="translate(-50.97 -93.08)"/><path d="M218.3,130.86c3.24,0,5.59,0,7.93,0s4.48-.28,6.75.35c.46,2.62.14,5.2.21,8H200.51a10.51,10.51,0,0,1-.17-4.07l13.78-20.38c-4.44-.89-8.53-.09-12.74-.58-.77-2.66-.28-5.34-.31-8.23h31.14c.84,2.33.11,4.22-1.24,6.17C226.85,118.08,222.87,124.09,218.3,130.86Z" transform="translate(-50.97 -93.08)"/><path class="a" d="M256.19,160v11.31c-1.44.85-2.84.47-4.17.53-5.92.25-8.38,2.47-8.7,8.44-.24,4.48-.09,9-.11,13.47,0,1.23,0,2.47,0,4H229.12V160.13h11.42c.34,1.42.67,2.85,1.1,4.67,1.91-2.3,3.65-4.32,6.38-5.12S253.38,158.57,256.19,160Z" transform="translate(-50.97 -93.08)"/><path class="a" d="M139.37,93.35c4.09-.46,8-.18,12.19-.18v46.1H139.37Z" transform="translate(-50.97 -93.08)"/><path class="b" d="M82.39,164.71a77.49,77.49,0,0,0-12.46-.05c-.69,3.71-.25,7.31-.33,10.88,0,2-.27,3.79-2.8,4.14a2.76,2.76,0,0,1-2.33-3.24c0-.24,0-.5,0-.74,1.46-11-2.4-21.12-5.56-31.33-.61-2-1.22-4-1.84-6,1.68-.65,2.65.24,3.74.76,1.48,4.65,2.93,9.28,4.44,13.89a22.32,22.32,0,0,0,1.57,3.78c2.58,4.77,6.27,6.06,11.25,3.8a11.6,11.6,0,0,1,8.11-.63,4.49,4.49,0,0,1,1.23,3.66c0,4.12,0,8.24,0,12.36,0,1.86-.31,3.52-2.61,3.92-2.2-.47-2.45-2.1-2.43-4C82.42,172.33,82.39,168.72,82.39,164.71Z" transform="translate(-50.97 -93.08)"/><path class="c" d="M68.57,115.44a7.19,7.19,0,0,1,7.12,7.11,7.31,7.31,0,0,1-7.33,7,7.09,7.09,0,0,1-6.85-7A6.92,6.92,0,0,1,68.57,115.44Z" transform="translate(-50.97 -93.08)"/><path class="d" d="M119.65,142.12a2.89,2.89,0,0,1-.06-2.91h11a2.1,2.1,0,0,1,0,2.88A70.5,70.5,0,0,1,119.65,142.12Z" transform="translate(-50.97 -93.08)"/><path class="e" d="M118.2,146.89a2.28,2.28,0,0,1,0-2.74h10.61c.8.74.68,1.54.28,2.61A64.78,64.78,0,0,1,118.2,146.89Z" transform="translate(-50.97 -93.08)"/></svg>